# xmcd
#
# Track frame offsets:
#	150
#	12075
#	25275
#	44025
#	55255
#	66825
#	79900
#	92925
#	103455
#	116737
#	129075
#	140850
#	154275
#	166275
#	178137
#	188420
#	203487
#	215200
#	230025
#	247875
#	258425
#	270182
#	282900
#	294800
#	306375
#	317587
#
# Disc length: 4389
#
# Revision: 7
# Processed by: cddbd v1.5.1PL0 Copyright (c) Steve Scherf et al.
# Submitted via: ExactAudioCopy v0.95a5
# Normalized: r6:DSETVAR1
#
DISCID=8211231a
DTITLE=Various Artist - Everlasting In Original - 125 Golden Oldies [CD1]
DYEAR=1992
DGENRE=Oldies
TTITLE0=The Platters - Smoke Gets In Your Eyes
TTITLE1=Percy Sledge - When A Man Loves A Woman
TTITLE2=Lobo - I'd Love You To Want Me
TTITLE3=The Cascades - Rhythm Of The Rain
TTITLE4=Ray Peteson - Corrina Corrina
TTITLE5=Ray Peterson - Tell Laura I Love Her
TTITLE6=B.J. Thomas - Raindrops Keep Falling On My Head
TTITLE7=The Everly Brothers - Devoted To You
TTITLE8=Patti Page - Tennesse Waltz
TTITLE9=The Drifters - Under The Boardwalk
TTITLE10=The Platters - The Great Pretender
TTITLE11=Ben E. King - Stand By Me
TTITLE12=Pat Boone - April Love
TTITLE13=Skeeter Davis - The End Of The World
TTITLE14=Pat Boone - Love Letters In The Sand
TTITLE15=Patti Page - I Went To Your Wedding
TTITLE16=The Platters - Only You
TTITLE17=Kingston Trio - Tom Dooley
TTITLE18=The Marmalade - Reflections Of My Life
TTITLE19=Frankie Laine - Sixteen Tons
TTITLE20=The Drifters - Save The Last Dance For Me
TTITLE21=Gallery - Nice To Be With You
TTITLE22=Pat Boone - Moody River
TTITLE23=Kenny Rogers - A Poem For My Little Lady
TTITLE24=Frankie Laine - Rose, Rose, I Love You
TTITLE25=Jerry Butler - Moon River
EXTD=YEAR: 1992 ID3G: 11
EXTT0=
EXTT1=
EXTT2=
EXTT3=
EXTT4=
EXTT5=
EXTT6=
EXTT7=
EXTT8=
EXTT9=
EXTT10=
EXTT11=
EXTT12=
EXTT13=
EXTT14=
EXTT15=
EXTT16=
EXTT17=
EXTT18=
EXTT19=
EXTT20=
EXTT21=
EXTT22=
EXTT23=
EXTT24=
EXTT25=
PLAYORDER=
